<svg width="1497" height="787" viewBox="0 0 1497 787" fill="none" xmlns="http://www.w3.org/2000/svg">
<path d="M26.918 45.4431L128.887 575.514L538.224 509.089H967.69L1366.49 577.702L1473.28 0.913086L1466.54 751.84L967.69 568.753L814.694 567.073L800.938 622.446H706.652L689.014 568.753H544.722L130.02 709.432L26.918 750.692V45.4431Z" fill="#000042"/>
<path d="M535.504 511.903L433.93 110.217" stroke="#808080" stroke-width="10"/>
<path d="M133.684 578.858L30.3047 43.3851" stroke="#808080" stroke-width="10"/>
<path d="M1464.38 37.0507L1361.53 579.001" stroke="#808080" stroke-width="10"/>
<path d="M957.965 509.445L1060.14 107.759" stroke="#808080" stroke-width="10"/>
<path d="M1057.02 110.084L1466 43.7544" stroke="#808080" stroke-width="10"/>
<path d="M429.402 109.331L26.0352 45.6281" stroke="#808080" stroke-width="10"/>
<path d="M541.128 509.877L132.207 574.387" stroke="#808080" stroke-width="10"/>
<path d="M542.314 572.9L27.9297 755.023" stroke="#808080" stroke-width="10"/>
<path d="M960.848 573.044L1465.27 757.166" stroke="#808080" stroke-width="10"/>
<path d="M956.293 509.877L1358.11 573.239" stroke="#808080" stroke-width="10"/>
<path d="M428.617 108.991H1065" stroke="#808080" stroke-width="10"/>
<path d="M26.7891 11.4668H1466.8" stroke="#808080" stroke-width="10"/>
<path d="M530.809 510.677H962.809" stroke="#808080" stroke-width="10"/>
<path d="M185.029 670.524L152.73 590.163L289.339 567.149L320.517 628.528L185.029 670.524Z" fill="#7D7DE9" stroke="black" stroke-width="9"/>
<path d="M209.637 639.88C210.595 641.935 210.909 644.001 210.69 645.657C210.468 647.326 209.738 648.433 208.749 648.895C207.759 649.356 206.442 649.204 205.021 648.301C203.611 647.404 202.23 645.835 201.272 643.781C200.313 641.726 199.999 639.659 200.219 638.003C200.44 636.334 201.171 635.227 202.16 634.765C203.149 634.304 204.467 634.456 205.888 635.36C207.298 636.256 208.679 637.825 209.637 639.88Z" fill="#FFFF00" stroke="black" stroke-width="2"/>
<path d="M239.832 631.83C240.79 633.885 241.105 635.951 240.885 637.607C240.664 639.276 239.933 640.383 238.944 640.845C237.955 641.306 236.637 641.154 235.216 640.25C233.806 639.354 232.425 637.785 231.467 635.73C230.509 633.676 230.195 631.609 230.414 629.953C230.636 628.284 231.366 627.177 232.355 626.715C233.345 626.254 234.662 626.406 236.083 627.31C237.493 628.206 238.874 629.775 239.832 631.83Z" fill="#FF0000" stroke="black" stroke-width="2"/>
<path d="M295.063 616.979C296.021 619.033 296.335 621.1 296.115 622.756C295.894 624.425 295.164 625.532 294.174 625.994C293.185 626.455 291.867 626.303 290.446 625.399C289.037 624.503 287.656 622.934 286.697 620.879C285.739 618.825 285.425 616.758 285.645 615.102C285.866 613.433 286.596 612.326 287.586 611.864C288.575 611.403 289.893 611.555 291.314 612.459C292.723 613.355 294.104 614.924 295.063 616.979Z" fill="#008000" stroke="black" stroke-width="2"/>
<path d="M267.922 624.259C268.88 626.314 269.194 628.38 268.975 630.036C268.753 631.706 268.023 632.813 267.034 633.274C266.044 633.735 264.727 633.583 263.306 632.68C261.896 631.784 260.515 630.215 259.557 628.16C258.599 626.105 258.284 624.038 258.504 622.382C258.725 620.713 259.456 619.606 260.445 619.145C261.434 618.683 262.752 618.836 264.173 619.739C265.583 620.635 266.964 622.204 267.922 624.259Z" fill="#0000FF" stroke="black" stroke-width="2"/>
<path d="M173.293 596.868L276.73 577.932L282.132 586.962L177.978 607.986L173.293 596.868Z" fill="white"/>
<path d="M182.043 615.091L285.478 593.804L290.163 603.672L186.728 626.209L182.043 615.091Z" fill="white"/>
<path d="M540.809 572.98L688.992 574.073" stroke="#808080" stroke-width="10"/>
<path d="M700.832 631.013H802.331" stroke="#808080" stroke-width="30"/>
<path d="M798.25 631.529L819.421 568.865" stroke="#808080" stroke-width="10"/>
<path d="M706.809 631.997L684.738 570.661" stroke="#808080" stroke-width="10"/>
<path d="M87.7673 50.2771L432.373 104.592H1064.77L1468.19 38.2433V16.3228H26.918V40.5973L87.7673 50.2771Z" fill="#000042"/>
<path d="M814.625 572.434L962.809 573.527" stroke="#808080" stroke-width="10"/>
<path d="M185.029 670.524L152.73 590.163L289.339 567.149L320.517 628.528L185.029 670.524Z" fill="#7D7DE9" stroke="black" stroke-width="9"/>
<path d="M209.637 639.88C210.595 641.935 210.909 644.001 210.69 645.657C210.468 647.326 209.738 648.433 208.749 648.895C207.759 649.356 206.442 649.204 205.021 648.301C203.611 647.404 202.23 645.835 201.272 643.781C200.313 641.726 199.999 639.659 200.219 638.003C200.44 636.334 201.171 635.227 202.16 634.765C203.149 634.304 204.467 634.456 205.888 635.36C207.298 636.256 208.679 637.825 209.637 639.88Z" fill="#FFFF00" stroke="black" stroke-width="2"/>
<path d="M239.832 631.83C240.79 633.885 241.105 635.951 240.885 637.607C240.664 639.276 239.933 640.383 238.944 640.845C237.955 641.306 236.637 641.154 235.216 640.25C233.806 639.354 232.425 637.785 231.467 635.73C230.509 633.676 230.195 631.609 230.414 629.953C230.636 628.284 231.366 627.177 232.355 626.715C233.345 626.254 234.662 626.406 236.083 627.31C237.493 628.206 238.874 629.775 239.832 631.83Z" fill="#FF0000" stroke="black" stroke-width="2"/>
<path d="M295.063 616.979C296.021 619.033 296.335 621.1 296.115 622.756C295.894 624.425 295.164 625.532 294.174 625.994C293.185 626.455 291.867 626.303 290.446 625.399C289.037 624.503 287.656 622.934 286.697 620.879C285.739 618.825 285.425 616.758 285.645 615.102C285.866 613.433 286.596 612.326 287.586 611.864C288.575 611.403 289.893 611.555 291.314 612.459C292.723 613.355 294.104 614.924 295.063 616.979Z" fill="#008000" stroke="black" stroke-width="2"/>
<path d="M267.922 624.259C268.88 626.314 269.194 628.38 268.975 630.036C268.753 631.706 268.023 632.813 267.034 633.274C266.044 633.735 264.727 633.583 263.306 632.68C261.896 631.784 260.515 630.215 259.557 628.16C258.599 626.105 258.284 624.038 258.504 622.382C258.725 620.713 259.456 619.606 260.445 619.145C261.434 618.683 262.752 618.836 264.173 619.739C265.583 620.635 266.964 622.204 267.922 624.259Z" fill="#0000FF" stroke="black" stroke-width="2"/>
<path d="M173.293 596.868L276.73 577.932L282.132 586.962L177.978 607.986L173.293 596.868Z" fill="white"/>
<path d="M1312.45 671.061L1344.75 590.699L1208.14 567.685L1176.96 629.064L1312.45 671.061Z" fill="#7D7DE9" stroke="black" stroke-width="9"/>
<path d="M1287.84 640.416C1286.88 642.471 1286.57 644.537 1286.79 646.193C1287.01 647.862 1287.74 648.97 1288.73 649.431C1289.72 649.892 1291.03 649.74 1292.46 648.837C1293.87 647.941 1295.25 646.371 1296.2 644.317C1297.16 642.262 1297.48 640.195 1297.26 638.539C1297.04 636.87 1296.31 635.763 1295.32 635.302C1294.33 634.84 1293.01 634.992 1291.59 635.896C1290.18 636.792 1288.8 638.361 1287.84 640.416Z" fill="#FFFF00" stroke="black" stroke-width="2"/>
<path d="M1257.64 632.366C1256.69 634.421 1256.37 636.487 1256.59 638.143C1256.81 639.812 1257.54 640.92 1258.53 641.381C1259.52 641.842 1260.84 641.69 1262.26 640.787C1263.67 639.891 1265.05 638.321 1266.01 636.267C1266.97 634.212 1267.28 632.145 1267.06 630.489C1266.84 628.82 1266.11 627.713 1265.12 627.252C1264.13 626.79 1262.81 626.942 1261.39 627.846C1259.98 628.742 1258.6 630.311 1257.64 632.366Z" fill="#FF0000" stroke="black" stroke-width="2"/>
<path d="M1202.41 617.515C1201.46 619.57 1201.14 621.636 1201.36 623.292C1201.58 624.961 1202.31 626.068 1203.3 626.53C1204.29 626.991 1205.61 626.839 1207.03 625.936C1208.44 625.039 1209.82 623.47 1210.78 621.416C1211.74 619.361 1212.05 617.294 1211.83 615.638C1211.61 613.969 1210.88 612.862 1209.89 612.4C1208.9 611.939 1207.58 612.091 1206.16 612.995C1204.75 613.891 1203.37 615.46 1202.41 617.515Z" fill="#008000" stroke="black" stroke-width="2"/>
<path d="M1229.55 624.795C1228.6 626.85 1228.28 628.917 1228.5 630.572C1228.72 632.242 1229.45 633.349 1230.44 633.81C1231.43 634.271 1232.75 634.119 1234.17 633.216C1235.58 632.32 1236.96 630.751 1237.92 628.696C1238.88 626.641 1239.19 624.574 1238.97 622.919C1238.75 621.249 1238.02 620.142 1237.03 619.681C1236.04 619.219 1234.72 619.372 1233.3 620.275C1231.89 621.171 1230.51 622.74 1229.55 624.795Z" fill="#0000FF" stroke="black" stroke-width="2"/>
<path d="M1318.78 606.435L1215.35 587.498L1209.94 596.529L1314.1 617.552L1318.78 606.435Z" fill="white"/>
<path d="M1114.27 600.931L1136.1 548.663L1041.37 533.308L1020.44 572.948L1114.27 600.931Z" fill="#7D7DE9" stroke="black" stroke-width="9"/>
<path d="M1097.73 581.731C1097.07 583.09 1096.86 584.444 1097.01 585.511C1097.15 586.588 1097.63 587.245 1098.23 587.511C1098.82 587.777 1099.65 587.708 1100.6 587.125C1101.55 586.548 1102.49 585.524 1103.15 584.165C1103.81 582.806 1104.02 581.452 1103.87 580.386C1103.72 579.308 1103.24 578.651 1102.65 578.385C1102.06 578.119 1101.23 578.188 1100.27 578.771C1099.33 579.348 1098.38 580.372 1097.73 581.731Z" fill="#FFFF00" stroke="black" stroke-width="2"/>
<path d="M1076.22 576.214C1075.56 577.573 1075.35 578.927 1075.5 579.993C1075.65 581.071 1076.13 581.728 1076.72 581.994C1077.31 582.26 1078.14 582.191 1079.1 581.608C1080.04 581.031 1080.98 580.007 1081.64 578.648C1082.3 577.289 1082.51 575.935 1082.36 574.868C1082.22 573.791 1081.74 573.134 1081.14 572.868C1080.55 572.602 1079.72 572.671 1078.76 573.254C1077.82 573.831 1076.88 574.855 1076.22 576.214Z" fill="#FF0000" stroke="black" stroke-width="2"/>
<path d="M1036.87 566.036C1036.22 567.395 1036.01 568.749 1036.15 569.815C1036.3 570.893 1036.78 571.55 1037.38 571.816C1037.97 572.082 1038.8 572.013 1039.75 571.43C1040.7 570.853 1041.64 569.829 1042.3 568.47C1042.96 567.111 1043.17 565.757 1043.02 564.69C1042.87 563.613 1042.39 562.956 1041.8 562.69C1041.21 562.424 1040.37 562.493 1039.42 563.076C1038.48 563.653 1037.53 564.677 1036.87 566.036Z" fill="#008000" stroke="black" stroke-width="2"/>
<path d="M1056.21 571.025C1055.55 572.384 1055.34 573.738 1055.49 574.805C1055.63 575.882 1056.11 576.539 1056.71 576.805C1057.3 577.071 1058.13 577.003 1059.09 576.42C1060.03 575.842 1060.97 574.818 1061.63 573.459C1062.29 572.1 1062.5 570.747 1062.35 569.68C1062.2 568.603 1061.72 567.945 1061.13 567.679C1060.54 567.413 1059.71 567.482 1058.75 568.065C1057.81 568.642 1056.87 569.666 1056.21 571.025Z" fill="#0000FF" stroke="black" stroke-width="2"/>
<path d="M1119.5 558.323L1082.66 551.834L1045.82 545.345L1041.97 551.534L1116.16 565.942L1119.5 558.323Z" fill="white"/>
<path d="M182.043 615.091L285.478 593.804L290.163 603.672L186.728 626.209L182.043 615.091Z" fill="white"/>
<path d="M356.403 611.128L333.332 557.881L433.759 539.836L455.584 582.611L356.403 611.128Z" fill="#7D7DE9" stroke="black" stroke-width="9"/>
<path d="M373.999 592.463C374.691 593.839 374.912 595.211 374.756 596.296C374.6 597.388 374.093 598.074 373.441 598.356C372.789 598.638 371.895 598.558 370.893 597.967C369.898 597.38 368.906 596.341 368.214 594.965C367.523 593.589 367.302 592.217 367.457 591.132C367.613 590.04 368.121 589.353 368.773 589.071C369.425 588.789 370.319 588.87 371.321 589.461C372.316 590.048 373.308 591.087 373.999 592.463Z" fill="#FFFF00" stroke="black" stroke-width="2"/>
<path d="M396.613 586.872C397.304 588.248 397.525 589.62 397.37 590.705C397.214 591.797 396.706 592.484 396.054 592.766C395.402 593.048 394.509 592.967 393.506 592.376C392.511 591.789 391.52 590.75 390.828 589.374C390.136 587.998 389.916 586.626 390.071 585.541C390.227 584.449 390.734 583.762 391.386 583.48C392.038 583.198 392.932 583.279 393.934 583.87C394.929 584.457 395.921 585.496 396.613 586.872Z" fill="#FF0000" stroke="black" stroke-width="2"/>
<path d="M434.882 575.8C435.574 577.176 435.794 578.548 435.639 579.633C435.483 580.725 434.975 581.412 434.324 581.694C433.672 581.976 432.778 581.895 431.776 581.304C430.781 580.717 429.789 579.678 429.097 578.302C428.406 576.926 428.185 575.554 428.34 574.469C428.496 573.377 429.004 572.69 429.656 572.408C430.308 572.126 431.201 572.207 432.204 572.798C433.199 573.385 434.19 574.424 434.882 575.8Z" fill="#008000" stroke="black" stroke-width="2"/>
<path d="M416.617 580.006C417.308 581.382 417.529 582.754 417.374 583.839C417.218 584.931 416.71 585.617 416.058 585.899C415.406 586.181 414.513 586.101 413.51 585.51C412.515 584.923 411.524 583.884 410.832 582.508C410.14 581.132 409.92 579.76 410.075 578.675C410.231 577.583 410.738 576.896 411.39 576.614C412.042 576.332 412.936 576.413 413.938 577.004C414.933 577.591 415.925 578.63 416.617 580.006Z" fill="#0000FF" stroke="black" stroke-width="2"/>
<path d="M348.102 562.305L425.548 549.153L428.551 553.791L351.997 568.53L348.102 562.305Z" fill="white"/>
<path d="M353.582 575.143L431.027 560.359L433.391 565.01L357.276 580.629L353.582 575.143Z" fill="white"/>
<path d="M26.918 757.118L1465.85 762.227L961.876 578.501L821.996 576.665L802.409 633.598H703.772L682.524 578.299L542.78 576.937L26.918 757.118Z" fill="#040828"/>
<path d="M548.377 621.039L699.832 623.081L704.169 632.135H803.312L806.268 622.464H961.295L1239.79 761.016H755.916L274.59 756.966L548.377 621.039Z" fill="#000040"/>
<path d="M548.377 621.039L699.832 623.081L704.169 632.135H803.312L806.268 622.464H961.295L1239.79 761.016H755.916L274.59 756.966L548.377 621.039Z" fill="url(#paint0_linear_40_313)"/>
<path d="M573.016 551.549C578.538 551.549 583.016 547.072 583.016 541.549C583.016 536.026 578.538 531.549 573.016 531.549C567.493 531.549 563.016 536.026 563.016 541.549C563.016 547.072 567.493 551.549 573.016 551.549Z" fill="#FF0000"/>
<path d="M655.602 551.549C661.124 551.549 665.602 547.072 665.602 541.549C665.602 536.026 661.124 531.549 655.602 531.549C650.079 531.549 645.602 536.026 645.602 541.549C645.602 547.072 650.079 551.549 655.602 551.549Z" fill="#FFFF00"/>
<path d="M614.309 551.829C619.831 551.829 624.309 547.352 624.309 541.829C624.309 536.306 619.831 531.829 614.309 531.829C608.786 531.829 604.309 536.306 604.309 541.829C604.309 547.352 608.786 551.829 614.309 551.829Z" fill="#008000"/>
<path d="M930.008 551.549C924.485 551.549 920.008 547.072 920.008 541.549C920.008 536.026 924.485 531.549 930.008 531.549C935.531 531.549 940.008 536.026 940.008 541.549C940.008 547.072 935.531 551.549 930.008 551.549Z" fill="#FF0000"/>
<path d="M847.422 551.549C841.899 551.549 837.422 547.072 837.422 541.549C837.422 536.026 841.899 531.549 847.422 531.549C852.945 531.549 857.422 536.026 857.422 541.549C857.422 547.072 852.945 551.549 847.422 551.549Z" fill="#FFFF00"/>
<path d="M888.719 551.829C883.196 551.829 878.719 547.352 878.719 541.829C878.719 536.306 883.196 531.829 888.719 531.829C894.242 531.829 898.719 536.306 898.719 541.829C898.719 547.352 894.242 551.829 888.719 551.829Z" fill="#008000"/>
<path d="M750.992 607.161C771.151 607.161 787.492 590.819 787.492 570.661C787.492 550.503 771.151 534.161 750.992 534.161C730.834 534.161 714.492 550.503 714.492 570.661C714.492 590.819 730.834 607.161 750.992 607.161Z" fill="#0010A2" stroke="white" stroke-width="7"/>
<path d="M768.852 563.338C770.232 563.338 771.352 562.219 771.352 560.838C771.352 559.457 770.232 558.338 768.852 558.338C767.471 558.338 766.352 559.457 766.352 560.838C766.352 562.219 767.471 563.338 768.852 563.338Z" fill="#FFFF00"/>
<path d="M768.852 570.661C770.232 570.661 771.352 569.542 771.352 568.161C771.352 566.78 770.232 565.661 768.852 565.661C767.471 565.661 766.352 566.78 766.352 568.161C766.352 569.542 767.471 570.661 768.852 570.661Z" fill="#FF0000"/>
<path d="M547.734 620.848L272.547 757.858" stroke="black" stroke-width="5"/>
<path d="M699.504 621.196H546.594" stroke="black" stroke-width="5"/>
<path d="M959.57 619.731L1245.93 762.227" stroke="black" stroke-width="5"/>
<path d="M806.227 620.079H960.715" stroke="black" stroke-width="5"/>
<path d="M543.375 114.367L660.555 114.368L808.836 504.938H639.715L543.375 114.367Z" fill="white" fill-opacity="0.1"/>
<rect x="15.5" y="15.5" width="1466" height="756" stroke="#000042" stroke-width="31"/>
<defs>
<linearGradient id="paint0_linear_40_313" x1="757.19" y1="621.039" x2="757.19" y2="761.016" gradientUnits="userSpaceOnUse">
<stop stop-color="#0A0860"/>
<stop offset="0.958333"/>
</linearGradient>
</defs>
</svg>
