<svg width="338" height="1220" viewBox="0 0 338 1220" fill="none" xmlns="http://www.w3.org/2000/svg">
<path d="M337.973 553.573C337.973 783.457 246.539 1219.08 164.186 1219.08C81.8328 1219.08 0.617188 783.457 0.617188 553.573C0.617188 323.689 81.8328 0.174561 164.186 0.174561C246.539 0.174561 337.973 323.689 337.973 553.573Z" fill="#FF0000"/>
<path d="M337.973 403.249C337.973 570.687 246.539 887.981 164.186 887.981C81.8328 887.981 0.617188 570.687 0.617188 403.249C0.617188 235.81 81.8328 0.174561 164.186 0.174561C246.539 0.174561 337.973 235.81 337.973 403.249Z" fill="#FF5A00"/>
<path d="M271.514 295.812C271.514 418.621 216.105 651.343 166.199 651.343C116.293 651.343 67.0762 418.621 67.0762 295.812C67.0762 173.003 116.293 0.174561 166.199 0.174561C216.105 0.174561 271.514 173.003 271.514 295.812Z" fill="#FF9A00"/>
<path d="M233.606 208.28C233.606 289.73 198.746 444.078 167.348 444.078C135.95 444.078 104.986 289.73 104.986 208.28C104.986 126.829 135.95 12.2047 167.348 12.2047C198.746 12.2047 233.606 126.829 233.606 208.28Z" fill="#FFCE00"/>
<path d="M208.422 135.238C208.422 191.345 187.213 297.665 168.11 297.665C149.007 297.665 130.168 191.345 130.168 135.238C130.168 79.1324 149.007 0.174561 168.11 0.174561C187.213 0.174561 208.422 79.1324 208.422 135.238Z" fill="#FFE808"/>
</svg>
