<svg width="906" height="1657" viewBox="0 0 906 1657" fill="none" xmlns="http://www.w3.org/2000/svg">
<path d="M734.507 1295.14C734.507 1640.72 608.332 1630.8 452.687 1630.8C297.043 1630.8 170.868 1640.72 170.868 1295.14C170.868 949.556 289.805 202.085 445.45 202.085C601.095 202.085 734.507 949.556 734.507 1295.14Z" fill="white"/>
<path d="M189.938 1169.12L33.3301 1260.08L0.255264 1622.71L189.938 1463.54V1169.12Z" fill="#FF0000"/>
<path d="M715.436 1170.05L872.044 1261.01L905.119 1623.64L715.436 1464.47V1170.05Z" fill="#FF0000"/>
<path d="M250.27 1590.72L655.507 1590.72L709.571 1656.56H195.804L250.27 1590.72Z" fill="#FF0000"/>
<path d="M447.516 0.817639L594.443 423.796H300.588L447.516 0.817639Z" fill="#FF0000"/>
<path d="M607.516 756.459C607.516 844.824 535.881 916.459 447.516 916.459C359.15 916.459 287.516 844.824 287.516 756.459C287.516 668.093 359.15 596.459 447.516 596.459C535.881 596.459 607.516 668.093 607.516 756.459Z" fill="#FF0000"/>
<circle cx="447.516" cy="756.459" r="135" fill="#B7B6FB"/>
</svg>
